<svg id="prompt-song-logo" width="220" height="220" viewBox="0 0 200 200" xmlns="http://www.w3.org/2000/svg" style="">
  <defs>
    <linearGradient id="gradStroke" x1="0" x2="1" y1="0" y2="1">
      <stop offset="0" stop-color="#7c5cff"></stop>
      <stop offset="1" stop-color="#00d4ff"></stop>
    </linearGradient>
  </defs>

  <!-- Mikrofon-Körper -->
  <path d="M100 48c-14 0-26 11-26 25v36c0 14 12 25 26 25s26-11 26-25v-36c0-14-12-25-26-25z" fill="none" stroke="url(#gradStroke)" stroke-width="4.4" stroke-linecap="round" stroke-linejoin="round" class="BoNhCybw_0"></path>

  <!-- Mikrofon-Grill -->
  <path d="M84 78q16 10 32 0" fill="none" stroke="url(#gradStroke)" stroke-width="3.2" stroke-linecap="round" class="BoNhCybw_1"></path>
  <path d="M84 88q16 10 32 0" fill="none" stroke="url(#gradStroke)" stroke-width="3" stroke-linecap="round" class="BoNhCybw_2"></path>
  <path d="M84 98q16 10 32 0" fill="none" stroke="url(#gradStroke)" stroke-width="2.6" stroke-linecap="round" class="BoNhCybw_3"></path>

  <!-- Mikrofon-Ständer -->
  <path d="M100 134v18" fill="none" stroke="url(#gradStroke)" stroke-width="4" stroke-linecap="round" class="BoNhCybw_4"></path>
  <path d="M70 156h60" fill="none" stroke="url(#gradStroke)" stroke-width="4" stroke-linecap="round" class="BoNhCybw_5"></path>

  <!-- Musiknoten -->
  <path d="M138 70v-18" fill="none" stroke="url(#gradStroke)" stroke-width="3.4" stroke-linecap="round" class="BoNhCybw_6"></path>
  <path d="M138 52q8-3 14 0" fill="none" stroke="url(#gradStroke)" stroke-width="3" stroke-linecap="round" class="BoNhCybw_7"></path>
  <path class="filler BoNhCybw_8" fill="#7c5cff" d="M131.4,74A6.6,6.6 0,1,1 144.6,74A6.6,6.6 0,1,1 131.4,74"></path>

  <path d="M154 92v-12" fill="none" stroke="url(#gradStroke)" stroke-width="2.8" stroke-linecap="round" class="BoNhCybw_9"></path>
  <path d="M154 80q6-2 10 2" fill="none" stroke="url(#gradStroke)" stroke-width="2.6" stroke-linecap="round" class="BoNhCybw_10"></path>
  <path class="filler BoNhCybw_11" fill="#00d4ff" d="M151.4,98A4.6,4.6 0,1,1 160.6,98A4.6,4.6 0,1,1 151.4,98"></path>

  <!-- Schallwellen -->
  <path d="M64 74q-12 10-12 26" fill="none" stroke="url(#gradStroke)" stroke-width="2.6" stroke-linecap="round" class="BoNhCybw_12"></path>
  <path d="M56 68q-22 16-22 40" fill="none" stroke="url(#gradStroke)" stroke-width="1.8" stroke-linecap="round" class="BoNhCybw_13"></path>
<style data-made-with="vivus-instant">.BoNhCybw_0{stroke-dasharray:233 235;stroke-dashoffset:234;animation:BoNhCybw_draw 1000ms ease 0ms forwards;}.BoNhCybw_1{stroke-dasharray:34 36;stroke-dashoffset:35;animation:BoNhCybw_draw 1000ms ease 38ms forwards;}.BoNhCybw_2{stroke-dasharray:34 36;stroke-dashoffset:35;animation:BoNhCybw_draw 1000ms ease 76ms forwards;}.BoNhCybw_3{stroke-dasharray:34 36;stroke-dashoffset:35;animation:BoNhCybw_draw 1000ms ease 115ms forwards;}.BoNhCybw_4{stroke-dasharray:18 20;stroke-dashoffset:19;animation:BoNhCybw_draw 1000ms ease 153ms forwards;}.BoNhCybw_5{stroke-dasharray:60 62;stroke-dashoffset:61;animation:BoNhCybw_draw 1000ms ease 192ms forwards;}.BoNhCybw_6{stroke-dasharray:18 20;stroke-dashoffset:19;animation:BoNhCybw_draw 1000ms ease 230ms forwards;}.BoNhCybw_7{stroke-dasharray:15 17;stroke-dashoffset:16;animation:BoNhCybw_draw 1000ms ease 269ms forwards;}.BoNhCybw_8{stroke-dasharray:42 44;stroke-dashoffset:43;animation:BoNhCybw_draw 1000ms ease 307ms forwards;}.BoNhCybw_9{stroke-dasharray:12 14;stroke-dashoffset:13;animation:BoNhCybw_draw 1000ms ease 346ms forwards;}.BoNhCybw_10{stroke-dasharray:11 13;stroke-dashoffset:12;animation:BoNhCybw_draw 1000ms ease 384ms forwards;}.BoNhCybw_11{stroke-dasharray:29 31;stroke-dashoffset:30;animation:BoNhCybw_draw 1000ms ease 423ms forwards;}.BoNhCybw_12{stroke-dasharray:30 32;stroke-dashoffset:31;animation:BoNhCybw_draw 1000ms ease 461ms forwards;}.BoNhCybw_13{stroke-dasharray:48 50;stroke-dashoffset:49;animation:BoNhCybw_draw 1000ms ease 500ms forwards;}@keyframes BoNhCybw_draw{100%{stroke-dashoffset:0;}}@keyframes BoNhCybw_fade{0%{stroke-opacity:1;}92.98245614035088%{stroke-opacity:1;}100%{stroke-opacity:0;}}</style></svg>
